<?xml version="1.0" encoding="utf-8" ?>
<?xml-stylesheet href="biograph.css" type="text/css" title="base devotees css" alternate="no" media="screen"?>
<?xml-stylesheet href="personal.css" type="text/css" title="user custom css" alternate="no" media="screen"?>
<svg baseProfile="full" height="100%" preserveAspectRatio="xMidYMid meet" version="1.1" viewBox="0,0,1250,2416" width="100%" xmlns="http://www.w3.org/2000/svg" xmlns:ev="http://www.w3.org/2001/xml-events" xmlns:xlink="http://www.w3.org/1999/xlink"><defs><pattern height="20" id="pattern1" patternUnits="userSpaceOnUse" width="20"><rect height="20" width="20" x="0" y="0" /><line x1="0" x2="20" y1="20" y2="0" /></pattern><pattern height="8" id="pattern2" patternUnits="userSpaceOnUse" width="8"><rect height="8" width="8" x="0" y="0" /><circle cx="4" cy="4" r="1" /></pattern><pattern height="20" id="pattern3" patternUnits="userSpaceOnUse" width="20"><rect height="20" width="20" x="0" y="0" /><line x1="0" x2="20" y1="20" y2="0" /><line x1="0" x2="20" y1="0" y2="20" /></pattern><pattern height="20" id="pattern4" patternUnits="userSpaceOnUse" width="20"><rect height="20" width="20" x="0" y="0" /><line x1="10" x2="10" y1="0" y2="20" /></pattern><pattern height="20" id="pattern5" patternUnits="userSpaceOnUse" width="20"><rect height="20" width="20" x="0" y="0" /><line x1="0" x2="20" y1="20" y2="20" /></pattern></defs><line stroke="grey" x1="0" x2="50" y1="2391" y2="2391" /><g class="yeartick"><text x="3" y="2389">1995</text></g><line stroke="grey" x1="0" x2="50" y1="2305" y2="2305" /><g class="yeartick"><text x="3" y="2303">1996</text></g><line stroke="grey" x1="0" x2="50" y1="2218" y2="2218" /><g class="yeartick"><text x="3" y="2216">1997</text></g><line stroke="grey" x1="0" x2="50" y1="2132" y2="2132" /><g class="yeartick"><text x="3" y="2130">1998</text></g><line stroke="grey" x1="0" x2="50" y1="2046" y2="2046" /><g class="yeartick"><text x="3" y="2044">1999</text></g><line stroke="grey" x1="0" x2="50" y1="1960" y2="1960" /><g class="yeartick"><text x="3" y="1958">2000</text></g><line stroke="grey" x1="0" x2="50" y1="1873" y2="1873" /><g class="yeartick"><text x="3" y="1871">2001</text></g><line stroke="grey" x1="0" x2="50" y1="1787" y2="1787" /><g class="yeartick"><text x="3" y="1785">2002</text></g><line stroke="grey" x1="0" x2="50" y1="1701" y2="1701" /><g class="yeartick"><text x="3" y="1699">2003</text></g><line stroke="grey" x1="0" x2="50" y1="1615" y2="1615" /><g class="yeartick"><text x="3" y="1613">2004</text></g><line stroke="grey" x1="0" x2="50" y1="1528" y2="1528" /><g class="yeartick"><text x="3" y="1526">2005</text></g><line stroke="grey" x1="0" x2="50" y1="1442" y2="1442" /><g class="yeartick"><text x="3" y="1440">2006</text></g><line stroke="grey" x1="0" x2="50" y1="1356" y2="1356" /><g class="yeartick"><text x="3" y="1354">2007</text></g><line stroke="grey" x1="0" x2="50" y1="1270" y2="1270" /><g class="yeartick"><text x="3" y="1268">2008</text></g><line stroke="grey" x1="0" x2="50" y1="1184" y2="1184" /><g class="yeartick"><text x="3" y="1182">2009</text></g><line stroke="grey" x1="0" x2="50" y1="1097" y2="1097" /><g class="yeartick"><text x="3" y="1095">2010</text></g><line stroke="grey" x1="0" x2="50" y1="1011" y2="1011" /><g class="yeartick"><text x="3" y="1009">2011</text></g><line stroke="grey" x1="0" x2="50" y1="925" y2="925" /><g class="yeartick"><text x="3" y="923">2012</text></g><line stroke="grey" x1="0" x2="50" y1="839" y2="839" /><g class="yeartick"><text x="3" y="837">2013</text></g><line stroke="grey" x1="0" x2="50" y1="752" y2="752" /><g class="yeartick"><text x="3" y="750">2014</text></g><line stroke="grey" x1="0" x2="50" y1="666" y2="666" /><g class="yeartick"><text x="3" y="664">2015</text></g><line stroke="grey" x1="0" x2="50" y1="580" y2="580" /><g class="yeartick"><text x="3" y="578">2016</text></g><line stroke="grey" x1="0" x2="50" y1="494" y2="494" /><g class="yeartick"><text x="3" y="492">2017</text></g><line stroke="grey" x1="0" x2="50" y1="408" y2="408" /><g class="yeartick"><text x="3" y="406">2018</text></g><line stroke="grey" x1="0" x2="50" y1="321" y2="321" /><g class="yeartick"><text x="3" y="319">2019</text></g><line stroke="grey" x1="0" x2="50" y1="235" y2="235" /><g class="yeartick"><text x="3" y="233">2020</text></g><line stroke="grey" x1="0" x2="50" y1="149" y2="149" /><g class="yeartick"><text x="3" y="147">2021</text></g><g class="age"><polygon class="rectangle" points="1002,2366 1037,2366 1037,2279 1002,2279" /></g><g class="age"><polygon class="rectangle" points="1002,2279 1037,2279 1037,2193 1002,2193" /><g class="age middle"><text x="1020" y="2241">1</text></g></g><g class="age"><polygon class="rectangle" points="1002,2193 1037,2193 1037,2107 1002,2107" /><g class="age middle"><text x="1020" y="2155">2</text></g></g><g class="age"><polygon class="rectangle" points="1002,2107 1037,2107 1037,2021 1002,2021" /><g class="age middle"><text x="1020" y="2069">3</text></g></g><g class="age"><polygon class="rectangle" points="1002,2021 1037,2021 1037,1934 1002,1934" /><g class="age middle"><text x="1020" y="1982">4</text></g></g><g class="age"><polygon class="rectangle" points="1002,1934 1037,1934 1037,1848 1002,1848" /><g class="age middle"><text x="1020" y="1896">5</text></g></g><g class="age"><polygon class="rectangle" points="1002,1848 1037,1848 1037,1762 1002,1762" /><g class="age middle"><text x="1020" y="1810">6</text></g></g><g class="age"><polygon class="rectangle" points="1002,1762 1037,1762 1037,1676 1002,1676" /><g class="age middle"><text x="1020" y="1724">7</text></g></g><g class="age"><polygon class="rectangle" points="1002,1676 1037,1676 1037,1589 1002,1589" /><g class="age middle"><text x="1020" y="1638">8</text></g></g><g class="age"><polygon class="rectangle" points="1002,1589 1037,1589 1037,1503 1002,1503" /><g class="age middle"><text x="1020" y="1551">9</text></g></g><g class="age"><polygon class="rectangle" points="1002,1503 1037,1503 1037,1417 1002,1417" /><g class="age middle"><text x="1020" y="1465">10</text></g></g><g class="age"><polygon class="rectangle" points="1002,1417 1037,1417 1037,1331 1002,1331" /><g class="age middle"><text x="1020" y="1379">11</text></g></g><g class="age"><polygon class="rectangle" points="1002,1331 1037,1331 1037,1244 1002,1244" /><g class="age middle"><text x="1020" y="1293">12</text></g></g><g class="age"><polygon class="rectangle" points="1002,1244 1037,1244 1037,1158 1002,1158" /><g class="age middle"><text x="1020" y="1206">13</text></g></g><g class="age"><polygon class="rectangle" points="1002,1158 1037,1158 1037,1072 1002,1072" /><g class="age middle"><text x="1020" y="1120">14</text></g></g><g class="age"><polygon class="rectangle" points="1002,1072 1037,1072 1037,986 1002,986" /><g class="age middle"><text x="1020" y="1034">15</text></g></g><g class="age"><polygon class="rectangle" points="1002,986 1037,986 1037,900 1002,900" /><g class="age middle"><text x="1020" y="948">16</text></g></g><g class="age"><polygon class="rectangle" points="1002,900 1037,900 1037,813 1002,813" /><g class="age middle"><text x="1020" y="861">17</text></g></g><g class="age"><polygon class="rectangle" points="1002,813 1037,813 1037,727 1002,727" /><g class="age middle"><text x="1020" y="775">18</text></g></g><g class="age"><polygon class="rectangle" points="1002,727 1037,727 1037,641 1002,641" /><g class="age middle"><text x="1020" y="689">19</text></g></g><g class="age"><polygon class="rectangle" points="1002,641 1037,641 1037,555 1002,555" /><g class="age middle"><text x="1020" y="603">20</text></g></g><g class="age"><polygon class="rectangle" points="1002,555 1037,555 1037,468 1002,468" /><g class="age middle"><text x="1020" y="517">21</text></g></g><g class="age"><polygon class="rectangle" points="1002,468 1037,468 1037,382 1002,382" /><g class="age middle"><text x="1020" y="430">22</text></g></g><g class="age"><polygon class="rectangle" points="1002,382 1037,382 1037,296 1002,296" /><g class="age middle"><text x="1020" y="344">23</text></g></g><g class="age"><polygon class="rectangle" points="1002,296 1037,296 1037,210 1002,210" /><g class="age middle"><text x="1020" y="258">24</text></g></g><g class="age"><polygon class="rectangle" points="1002,210 1037,210 1037,124 1002,124" /><g class="age middle"><text x="1020" y="172">25</text></g></g><g class="axis_label"><text x="328" y="80">weekday</text></g><g class="axis_label"><text x="328" y="96">mornings</text></g><g class="axis_label"><text x="493" y="80">weekday</text></g><g class="axis_label"><text x="493" y="96">afternoons</text></g><g class="axis_label"><text x="673" y="80">weekday</text></g><g class="axis_label"><text x="673" y="96">evenings</text></g><line stroke="grey" x1="300" x2="299" y1="105" y2="50" /><line stroke="grey" x1="450" x2="449" y1="105" y2="70" /><line stroke="grey" x1="630" x2="629" y1="105" y2="70" /><g class="axis_label"><text x="859" y="88">weekends</text></g><line stroke="grey" x1="810" x2="810" y1="105" y2="50" /><line stroke="grey" x1="1001" x2="1001" y1="105" y2="50" /><g class="axis_label"><text x="53" y="88">residences</text></g><g class="axis_label"><text x="233" y="88">flatmates</text></g><line stroke="grey" x1="300" x2="300" y1="105" y2="50" /><g class="axis_label"><text x="1040" y="88">events</text></g><line stroke="grey" x1="1052" x2="1052" y1="100" y2="2366" /><g><text x="1025" y="15">Generated on 2021-07-29</text></g><circle class="event1" cx="1052.5274725274726" cy="2366.0" r="3" /><g class="event"><text x="1058" y="2371">Arrived on Sol III</text></g><polygon class="gray1 residence rectangle" points="50,2366 1002,2366 1002,1002 50,1002" /><g><text x="53" y="2364">Dripping Springs TX</text></g><polygon class="gray2 residence rectangle" points="50,990 1002,990 1002,590 50,590" /><g><text x="53" y="988">Mill St, San Marcos TX</text></g><polygon class="gray3 residence rectangle" points="50,590 1002,590 1002,533 50,533" /><g><text x="53" y="589">Post Rd, San Marcos TX</text></g><polygon class="gray4 residence rectangle" points="50,533 1002,533 1002,243 50,243" /><g><text x="53" y="531">Lady Bird Lane, San Marcos TX</text></g><polygon class="gray5 residence rectangle" points="50,329 1002,329 1002,224 50,224" /><g><text x="53" y="327">Deaton Hill, Austin TX</text></g><polygon class="gray6 residence rectangle" points="50,224 1002,224 1002,100 50,100" /><g><text x="53" y="222">Corpus Christi TX</text></g><polygon class="school1 rectangle" points="360,1996 600,1996 600,875 360,875" /><g class="school1 middle"><text x="480" y="1440">Homeschooled</text></g><polygon class="friend2 rectangle" points="272,2366 285,2366 285,1002 272,1002" /><g class="friend2 vert middle"><text x="279" y="1689">SH</text></g><polygon class="friend2 rectangle" points="260,2366 272,2366 272,590 260,590" /><g class="friend2 vert middle"><text x="267" y="1483">JH</text></g><polygon class="friend2 rectangle" points="248,2136 260,2136 260,590 248,590" /><g class="friend2 vert middle"><text x="255" y="1368">RAH</text></g><polygon class="friend2 rectangle" points="236,1833 248,1833 248,590 236,590" /><g class="friend2 vert middle"><text x="243" y="1216">BRH</text></g><polygon class="friend2 rectangle" points="224,1697 236,1697 236,590 224,590" /><g class="friend2 vert middle"><text x="231" y="1149">LJH</text></g><polygon class="friend1 rectangle" points="285,224 297,224 297,100 285,100" /><g class="friend1 vert middle"><text x="291" y="167">Lauren</text></g><polygon class="friend1 rectangle" points="285,508 297,508 297,329 285,329" /><g class="friend1 vert middle"><text x="291" y="423">Luke</text></g><polygon class="friend2 rectangle" points="285,533 297,533 297,518 285,518" /><g class="friend2 vert middle"><text x="291" y="530">Chris</text></g><polygon class="friend2 rectangle" points="285,329 297,329 297,224 285,224" /><g class="friend2 vert middle"><text x="291" y="281">Micah</text></g><circle class="event2" cx="1052.5274725274726" cy="2193.435566204813" r="3" /><g class="event"><text x="1058" y="2198">Turned 2 (earliest dated memory)</text></g><circle class="event3" cx="1052.5274725274726" cy="2136.5435982914887" r="3" /><g class="event"><text x="1058" y="2141">Car hits deer; sister born</text></g><circle class="event4" cx="1052.5274725274726" cy="546.1652255443275" r="3" /><g class="event"><text x="1058" y="551">Met Lauren</text></g><circle class="event5" cx="1052.5274725274726" cy="1564.7911240754245" r="3" /><g class="event"><text x="1058" y="1569">First computer</text></g><circle class="event6" cx="1052.5274725274726" cy="1032.4617147619542" r="3" /><g class="event"><text x="1058" y="1037">Built first website (forum)</text></g><circle class="event7" cx="1052.5274725274726" cy="990.4419210334408" r="3" /><g class="event"><text x="1058" y="995">Broadband Internet (prev. dialup)</text></g><circle class="event8" cx="1052.5274725274726" cy="1019.005938118554" r="3" /><g class="event"><text x="1058" y="1024">Met Kolton</text></g><polygon class="love2 rectangle" points="853,673 913,673 913,579 853,579" /><g class="love2 vert middle"><text x="883" y="631">Rebekah</text></g><polygon class="love1 rectangle" points="895,533 931,533 931,525 895,525" /><g class="love1 middle"><text x="913" y="534">Ana</text></g><polygon class="love3 rectangle" points="811,511 955,511 955,100 811,100" /><g class="love3 middle"><text x="883" y="310">Lauren</text></g><polygon class="work1 rectangle" points="811,512 931,512 931,472 811,472" /><g class="work1 middle"><text x="871" y="497">Ella Lofts</text></g><polygon class="play1 rectangle" points="811,1651 835,1651 835,1219 811,1219" /><g class="play1 vert middle"><text x="823" y="1440">Church (ACF)</text></g><polygon class="play2 rectangle" points="811,1219 835,1219 835,961 811,961" /><g class="play2 vert middle"><text x="823" y="1095">Church (GH)</text></g><polygon class="play1 rectangle" points="811,961 829,961 829,530 811,530" /><g class="play1 vert middle"><text x="820" y="750">Church (HCC)</text></g><polygon class="play2 rectangle" points="811,530 823,530 823,443 811,443" /><g class="play2 vert middle"><text x="817" y="492">Church (Eikon)</text></g></svg>