<?xml version="1.0" encoding="utf-8" ?>
<?xml-stylesheet href="biograph.css" type="text/css" title="base devotees css" alternate="no" media="screen"?>
<?xml-stylesheet href="personal.css" type="text/css" title="user custom css" alternate="no" media="screen"?>
<svg baseProfile="full" height="100%" preserveAspectRatio="xMidYMid meet" version="1.1" viewBox="0,0,1150,1417" width="100%" xmlns="http://www.w3.org/2000/svg" xmlns:ev="http://www.w3.org/2001/xml-events" xmlns:xlink="http://www.w3.org/1999/xlink"><defs><pattern height="20" id="pattern1" patternUnits="userSpaceOnUse" width="20"><rect height="20" width="20" x="0" y="0" /><line x1="0" x2="20" y1="20" y2="0" /></pattern><pattern height="8" id="pattern2" patternUnits="userSpaceOnUse" width="8"><rect height="8" width="8" x="0" y="0" /><circle cx="4" cy="4" r="1" /></pattern><pattern height="20" id="pattern3" patternUnits="userSpaceOnUse" width="20"><rect height="20" width="20" x="0" y="0" /><line x1="0" x2="20" y1="20" y2="0" /><line x1="0" x2="20" y1="0" y2="20" /></pattern><pattern height="20" id="pattern4" patternUnits="userSpaceOnUse" width="20"><rect height="20" width="20" x="0" y="0" /><line x1="10" x2="10" y1="0" y2="20" /></pattern><pattern height="20" id="pattern5" patternUnits="userSpaceOnUse" width="20"><rect height="20" width="20" x="0" y="0" /><line x1="0" x2="20" y1="20" y2="20" /></pattern></defs><line stroke="grey" x1="0" x2="50" y1="1381" y2="1381" /><g class="yeartick"><text x="3" y="1379">1995</text></g><line stroke="grey" x1="0" x2="50" y1="1332" y2="1332" /><g class="yeartick"><text x="3" y="1330">1996</text></g><line stroke="grey" x1="0" x2="50" y1="1284" y2="1284" /><g class="yeartick"><text x="3" y="1282">1997</text></g><line stroke="grey" x1="0" x2="50" y1="1236" y2="1236" /><g class="yeartick"><text x="3" y="1234">1998</text></g><line stroke="grey" x1="0" x2="50" y1="1188" y2="1188" /><g class="yeartick"><text x="3" y="1186">1999</text></g><line stroke="grey" x1="0" x2="50" y1="1140" y2="1140" /><g class="yeartick"><text x="3" y="1138">2000</text></g><line stroke="grey" x1="0" x2="50" y1="1091" y2="1091" /><g class="yeartick"><text x="3" y="1089">2001</text></g><line stroke="grey" x1="0" x2="50" y1="1043" y2="1043" /><g class="yeartick"><text x="3" y="1041">2002</text></g><line stroke="grey" x1="0" x2="50" y1="995" y2="995" /><g class="yeartick"><text x="3" y="993">2003</text></g><line stroke="grey" x1="0" x2="50" y1="947" y2="947" /><g class="yeartick"><text x="3" y="945">2004</text></g><line stroke="grey" x1="0" x2="50" y1="898" y2="898" /><g class="yeartick"><text x="3" y="896">2005</text></g><line stroke="grey" x1="0" x2="50" y1="850" y2="850" /><g class="yeartick"><text x="3" y="848">2006</text></g><line stroke="grey" x1="0" x2="50" y1="802" y2="802" /><g class="yeartick"><text x="3" y="800">2007</text></g><line stroke="grey" x1="0" x2="50" y1="754" y2="754" /><g class="yeartick"><text x="3" y="752">2008</text></g><line stroke="grey" x1="0" x2="50" y1="706" y2="706" /><g class="yeartick"><text x="3" y="704">2009</text></g><line stroke="grey" x1="0" x2="50" y1="657" y2="657" /><g class="yeartick"><text x="3" y="655">2010</text></g><line stroke="grey" x1="0" x2="50" y1="609" y2="609" /><g class="yeartick"><text x="3" y="607">2011</text></g><line stroke="grey" x1="0" x2="50" y1="561" y2="561" /><g class="yeartick"><text x="3" y="559">2012</text></g><line stroke="grey" x1="0" x2="50" y1="513" y2="513" /><g class="yeartick"><text x="3" y="511">2013</text></g><line stroke="grey" x1="0" x2="50" y1="465" y2="465" /><g class="yeartick"><text x="3" y="463">2014</text></g><line stroke="grey" x1="0" x2="50" y1="416" y2="416" /><g class="yeartick"><text x="3" y="414">2015</text></g><line stroke="grey" x1="0" x2="50" y1="368" y2="368" /><g class="yeartick"><text x="3" y="366">2016</text></g><line stroke="grey" x1="0" x2="50" y1="320" y2="320" /><g class="yeartick"><text x="3" y="318">2017</text></g><line stroke="grey" x1="0" x2="50" y1="272" y2="272" /><g class="yeartick"><text x="3" y="270">2018</text></g><line stroke="grey" x1="0" x2="50" y1="224" y2="224" /><g class="yeartick"><text x="3" y="222">2019</text></g><line stroke="grey" x1="0" x2="50" y1="175" y2="175" /><g class="yeartick"><text x="3" y="173">2020</text></g><line stroke="grey" x1="0" x2="50" y1="127" y2="127" /><g class="yeartick"><text x="3" y="125">2021</text></g><g class="age"><polygon class="rectangle" points="1002,1367 1037,1367 1037,1318 1002,1318" /></g><g class="age"><polygon class="rectangle" points="1002,1318 1037,1318 1037,1270 1002,1270" /><g class="age middle"><text x="1020" y="1299">1</text></g></g><g class="age"><polygon class="rectangle" points="1002,1270 1037,1270 1037,1222 1002,1222" /><g class="age middle"><text x="1020" y="1251">2</text></g></g><g class="age"><polygon class="rectangle" points="1002,1222 1037,1222 1037,1174 1002,1174" /><g class="age middle"><text x="1020" y="1203">3</text></g></g><g class="age"><polygon class="rectangle" points="1002,1174 1037,1174 1037,1125 1002,1125" /><g class="age middle"><text x="1020" y="1155">4</text></g></g><g class="age"><polygon class="rectangle" points="1002,1125 1037,1125 1037,1077 1002,1077" /><g class="age middle"><text x="1020" y="1106">5</text></g></g><g class="age"><polygon class="rectangle" points="1002,1077 1037,1077 1037,1029 1002,1029" /><g class="age middle"><text x="1020" y="1058">6</text></g></g><g class="age"><polygon class="rectangle" points="1002,1029 1037,1029 1037,981 1002,981" /><g class="age middle"><text x="1020" y="1010">7</text></g></g><g class="age"><polygon class="rectangle" points="1002,981 1037,981 1037,933 1002,933" /><g class="age middle"><text x="1020" y="962">8</text></g></g><g class="age"><polygon class="rectangle" points="1002,933 1037,933 1037,884 1002,884" /><g class="age middle"><text x="1020" y="913">9</text></g></g><g class="age"><polygon class="rectangle" points="1002,884 1037,884 1037,836 1002,836" /><g class="age middle"><text x="1020" y="865">10</text></g></g><g class="age"><polygon class="rectangle" points="1002,836 1037,836 1037,788 1002,788" /><g class="age middle"><text x="1020" y="817">11</text></g></g><g class="age"><polygon class="rectangle" points="1002,788 1037,788 1037,740 1002,740" /><g class="age middle"><text x="1020" y="769">12</text></g></g><g class="age"><polygon class="rectangle" points="1002,740 1037,740 1037,691 1002,691" /><g class="age middle"><text x="1020" y="721">13</text></g></g><g class="age"><polygon class="rectangle" points="1002,691 1037,691 1037,643 1002,643" /><g class="age middle"><text x="1020" y="672">14</text></g></g><g class="age"><polygon class="rectangle" points="1002,643 1037,643 1037,595 1002,595" /><g class="age middle"><text x="1020" y="624">15</text></g></g><g class="age"><polygon class="rectangle" points="1002,595 1037,595 1037,547 1002,547" /><g class="age middle"><text x="1020" y="576">16</text></g></g><g class="age"><polygon class="rectangle" points="1002,547 1037,547 1037,499 1002,499" /><g class="age middle"><text x="1020" y="528">17</text></g></g><g class="age"><polygon class="rectangle" points="1002,499 1037,499 1037,450 1002,450" /><g class="age middle"><text x="1020" y="480">18</text></g></g><g class="age"><polygon class="rectangle" points="1002,450 1037,450 1037,402 1002,402" /><g class="age middle"><text x="1020" y="431">19</text></g></g><g class="age"><polygon class="rectangle" points="1002,402 1037,402 1037,354 1002,354" /><g class="age middle"><text x="1020" y="383">20</text></g></g><g class="age"><polygon class="rectangle" points="1002,354 1037,354 1037,306 1002,306" /><g class="age middle"><text x="1020" y="335">21</text></g></g><g class="age"><polygon class="rectangle" points="1002,306 1037,306 1037,258 1002,258" /><g class="age middle"><text x="1020" y="287">22</text></g></g><g class="age"><polygon class="rectangle" points="1002,258 1037,258 1037,209 1002,209" /><g class="age middle"><text x="1020" y="239">23</text></g></g><g class="age"><polygon class="rectangle" points="1002,209 1037,209 1037,161 1002,161" /><g class="age middle"><text x="1020" y="190">24</text></g></g><g class="age"><polygon class="rectangle" points="1002,161 1037,161 1037,113 1002,113" /><g class="age middle"><text x="1020" y="142">25</text></g></g><g class="axis_label"><text x="328" y="80">weekday</text></g><g class="axis_label"><text x="328" y="96">mornings</text></g><g class="axis_label"><text x="493" y="80">weekday</text></g><g class="axis_label"><text x="493" y="96">afternoons</text></g><g class="axis_label"><text x="673" y="80">weekday</text></g><g class="axis_label"><text x="673" y="96">evenings</text></g><line stroke="grey" x1="300" x2="299" y1="105" y2="50" /><line stroke="grey" x1="450" x2="449" y1="105" y2="70" /><line stroke="grey" x1="630" x2="629" y1="105" y2="70" /><g class="axis_label"><text x="859" y="88">weekends</text></g><line stroke="grey" x1="810" x2="810" y1="105" y2="50" /><line stroke="grey" x1="1001" x2="1001" y1="105" y2="50" /><g class="axis_label"><text x="53" y="88">residences</text></g><g class="axis_label"><text x="233" y="88">flatmates</text></g><line stroke="grey" x1="300" x2="300" y1="105" y2="50" /><g class="axis_label"><text x="1040" y="88">events</text></g><line stroke="grey" x1="1052" x2="1052" y1="100" y2="1367" /><g><text x="1025" y="15">Generated on 2021-07-29</text></g><circle class="event1" cx="1052.5274725274726" cy="1367.0" r="3" /><g class="event"><text x="1058" y="1372">Arrived on Sol III</text></g><polygon class="gray1 residence rectangle" points="50,1367 1002,1367 1002,604 50,604" /><g><text x="53" y="1365">Dripping Springs TX</text></g><polygon class="gray2 residence rectangle" points="50,597 1002,597 1002,374 50,374" /><g><text x="53" y="596">Mill St, San Marcos TX</text></g><polygon class="gray3 residence rectangle" points="50,374 1002,374 1002,342 50,342" /><g><text x="53" y="372">Post Rd, San Marcos TX</text></g><polygon class="gray4 residence rectangle" points="50,342 1002,342 1002,179 50,179" /><g><text x="53" y="340">Lady Bird Lane, San Marcos TX</text></g><polygon class="gray5 residence rectangle" points="50,228 1002,228 1002,169 50,169" /><g><text x="53" y="226">Deaton Hill, Austin TX</text></g><polygon class="gray6 residence rectangle" points="50,169 1002,169 1002,100 50,100" /><g><text x="53" y="168">Corpus Christi TX</text></g><polygon class="friend3 rectangle" points="272,1367 285,1367 285,604 272,604" /><g class="friend3 vert middle"><text x="279" y="990">SH</text></g><polygon class="friend3 rectangle" points="260,1367 272,1367 272,374 260,374" /><g class="friend3 vert middle"><text x="267" y="875">JH</text></g><polygon class="friend3 rectangle" points="248,1238 260,1238 260,374 248,374" /><g class="friend3 vert middle"><text x="255" y="811">RAH</text></g><polygon class="friend3 rectangle" points="236,1069 248,1069 248,374 236,374" /><g class="friend3 vert middle"><text x="243" y="726">BRH</text></g><polygon class="friend3 rectangle" points="224,993 236,993 236,374 224,374" /><g class="friend3 vert middle"><text x="231" y="688">LJH</text></g></svg>