<?xml version="1.0" encoding="utf-8" ?>
<?xml-stylesheet href="biograph.css" type="text/css" title="base devotees css" alternate="no" media="screen"?>
<?xml-stylesheet href="personal.css" type="text/css" title="user custom css" alternate="no" media="screen"?>
<svg baseProfile="full" height="100%" preserveAspectRatio="xMidYMid meet" version="1.1" viewBox="0,0,1250,4391" width="100%" xmlns="http://www.w3.org/2000/svg" xmlns:ev="http://www.w3.org/2001/xml-events" xmlns:xlink="http://www.w3.org/1999/xlink"><defs><pattern height="20" id="pattern1" patternUnits="userSpaceOnUse" width="20"><rect height="20" width="20" x="0" y="0" /><line x1="0" x2="20" y1="20" y2="0" /></pattern><pattern height="8" id="pattern2" patternUnits="userSpaceOnUse" width="8"><rect height="8" width="8" x="0" y="0" /><circle cx="4" cy="4" r="1" /></pattern><pattern height="20" id="pattern3" patternUnits="userSpaceOnUse" width="20"><rect height="20" width="20" x="0" y="0" /><line x1="0" x2="20" y1="20" y2="0" /><line x1="0" x2="20" y1="0" y2="20" /></pattern><pattern height="20" id="pattern4" patternUnits="userSpaceOnUse" width="20"><rect height="20" width="20" x="0" y="0" /><line x1="10" x2="10" y1="0" y2="20" /></pattern><pattern height="20" id="pattern5" patternUnits="userSpaceOnUse" width="20"><rect height="20" width="20" x="0" y="0" /><line x1="0" x2="20" y1="20" y2="20" /></pattern></defs><line stroke="grey" x1="0" x2="50" y1="4386" y2="4386" /><g class="yeartick"><text x="3" y="4384">1995</text></g><line stroke="grey" x1="0" x2="50" y1="4230" y2="4230" /><g class="yeartick"><text x="3" y="4228">1996</text></g><line stroke="grey" x1="0" x2="50" y1="4073" y2="4073" /><g class="yeartick"><text x="3" y="4071">1997</text></g><line stroke="grey" x1="0" x2="50" y1="3917" y2="3917" /><g class="yeartick"><text x="3" y="3915">1998</text></g><line stroke="grey" x1="0" x2="50" y1="3761" y2="3761" /><g class="yeartick"><text x="3" y="3759">1999</text></g><line stroke="grey" x1="0" x2="50" y1="3604" y2="3604" /><g class="yeartick"><text x="3" y="3602">2000</text></g><line stroke="grey" x1="0" x2="50" y1="3448" y2="3448" /><g class="yeartick"><text x="3" y="3446">2001</text></g><line stroke="grey" x1="0" x2="50" y1="3291" y2="3291" /><g class="yeartick"><text x="3" y="3289">2002</text></g><line stroke="grey" x1="0" x2="50" y1="3135" y2="3135" /><g class="yeartick"><text x="3" y="3133">2003</text></g><line stroke="grey" x1="0" x2="50" y1="2979" y2="2979" /><g class="yeartick"><text x="3" y="2977">2004</text></g><line stroke="grey" x1="0" x2="50" y1="2822" y2="2822" /><g class="yeartick"><text x="3" y="2820">2005</text></g><line stroke="grey" x1="0" x2="50" y1="2666" y2="2666" /><g class="yeartick"><text x="3" y="2664">2006</text></g><line stroke="grey" x1="0" x2="50" y1="2509" y2="2509" /><g class="yeartick"><text x="3" y="2507">2007</text></g><line stroke="grey" x1="0" x2="50" y1="2353" y2="2353" /><g class="yeartick"><text x="3" y="2351">2008</text></g><line stroke="grey" x1="0" x2="50" y1="2196" y2="2196" /><g class="yeartick"><text x="3" y="2194">2009</text></g><line stroke="grey" x1="0" x2="50" y1="2040" y2="2040" /><g class="yeartick"><text x="3" y="2038">2010</text></g><line stroke="grey" x1="0" x2="50" y1="1884" y2="1884" /><g class="yeartick"><text x="3" y="1882">2011</text></g><line stroke="grey" x1="0" x2="50" y1="1727" y2="1727" /><g class="yeartick"><text x="3" y="1725">2012</text></g><line stroke="grey" x1="0" x2="50" y1="1571" y2="1571" /><g class="yeartick"><text x="3" y="1569">2013</text></g><line stroke="grey" x1="0" x2="50" y1="1414" y2="1414" /><g class="yeartick"><text x="3" y="1412">2014</text></g><line stroke="grey" x1="0" x2="50" y1="1258" y2="1258" /><g class="yeartick"><text x="3" y="1256">2015</text></g><line stroke="grey" x1="0" x2="50" y1="1102" y2="1102" /><g class="yeartick"><text x="3" y="1100">2016</text></g><line stroke="grey" x1="0" x2="50" y1="945" y2="945" /><g class="yeartick"><text x="3" y="943">2017</text></g><line stroke="grey" x1="0" x2="50" y1="789" y2="789" /><g class="yeartick"><text x="3" y="787">2018</text></g><line stroke="grey" x1="0" x2="50" y1="632" y2="632" /><g class="yeartick"><text x="3" y="630">2019</text></g><line stroke="grey" x1="0" x2="50" y1="476" y2="476" /><g class="yeartick"><text x="3" y="474">2020</text></g><line stroke="grey" x1="0" x2="50" y1="319" y2="319" /><g class="yeartick"><text x="3" y="317">2021</text></g><line stroke="grey" x1="0" x2="50" y1="163" y2="163" /><g class="yeartick"><text x="3" y="161">2022</text></g><g class="age"><polygon class="rectangle" points="1002,4341 1037,4341 1037,4184 1002,4184" /></g><g class="age"><polygon class="rectangle" points="1002,4184 1037,4184 1037,4027 1002,4027" /><g class="age middle"><text x="1020" y="4111">1</text></g></g><g class="age"><polygon class="rectangle" points="1002,4027 1037,4027 1037,3871 1002,3871" /><g class="age middle"><text x="1020" y="3954">2</text></g></g><g class="age"><polygon class="rectangle" points="1002,3871 1037,3871 1037,3715 1002,3715" /><g class="age middle"><text x="1020" y="3798">3</text></g></g><g class="age"><polygon class="rectangle" points="1002,3715 1037,3715 1037,3558 1002,3558" /><g class="age middle"><text x="1020" y="3641">4</text></g></g><g class="age"><polygon class="rectangle" points="1002,3558 1037,3558 1037,3402 1002,3402" /><g class="age middle"><text x="1020" y="3485">5</text></g></g><g class="age"><polygon class="rectangle" points="1002,3402 1037,3402 1037,3245 1002,3245" /><g class="age middle"><text x="1020" y="3329">6</text></g></g><g class="age"><polygon class="rectangle" points="1002,3245 1037,3245 1037,3089 1002,3089" /><g class="age middle"><text x="1020" y="3172">7</text></g></g><g class="age"><polygon class="rectangle" points="1002,3089 1037,3089 1037,2932 1002,2932" /><g class="age middle"><text x="1020" y="3016">8</text></g></g><g class="age"><polygon class="rectangle" points="1002,2932 1037,2932 1037,2776 1002,2776" /><g class="age middle"><text x="1020" y="2859">9</text></g></g><g class="age"><polygon class="rectangle" points="1002,2776 1037,2776 1037,2620 1002,2620" /><g class="age middle"><text x="1020" y="2703">10</text></g></g><g class="age"><polygon class="rectangle" points="1002,2620 1037,2620 1037,2463 1002,2463" /><g class="age middle"><text x="1020" y="2547">11</text></g></g><g class="age"><polygon class="rectangle" points="1002,2463 1037,2463 1037,2307 1002,2307" /><g class="age middle"><text x="1020" y="2390">12</text></g></g><g class="age"><polygon class="rectangle" points="1002,2307 1037,2307 1037,2150 1002,2150" /><g class="age middle"><text x="1020" y="2234">13</text></g></g><g class="age"><polygon class="rectangle" points="1002,2150 1037,2150 1037,1994 1002,1994" /><g class="age middle"><text x="1020" y="2077">14</text></g></g><g class="age"><polygon class="rectangle" points="1002,1994 1037,1994 1037,1838 1002,1838" /><g class="age middle"><text x="1020" y="1921">15</text></g></g><g class="age"><polygon class="rectangle" points="1002,1838 1037,1838 1037,1681 1002,1681" /><g class="age middle"><text x="1020" y="1764">16</text></g></g><g class="age"><polygon class="rectangle" points="1002,1681 1037,1681 1037,1525 1002,1525" /><g class="age middle"><text x="1020" y="1608">17</text></g></g><g class="age"><polygon class="rectangle" points="1002,1525 1037,1525 1037,1368 1002,1368" /><g class="age middle"><text x="1020" y="1452">18</text></g></g><g class="age"><polygon class="rectangle" points="1002,1368 1037,1368 1037,1212 1002,1212" /><g class="age middle"><text x="1020" y="1295">19</text></g></g><g class="age"><polygon class="rectangle" points="1002,1212 1037,1212 1037,1055 1002,1055" /><g class="age middle"><text x="1020" y="1139">20</text></g></g><g class="age"><polygon class="rectangle" points="1002,1055 1037,1055 1037,899 1002,899" /><g class="age middle"><text x="1020" y="982">21</text></g></g><g class="age"><polygon class="rectangle" points="1002,899 1037,899 1037,743 1002,743" /><g class="age middle"><text x="1020" y="826">22</text></g></g><g class="age"><polygon class="rectangle" points="1002,743 1037,743 1037,586 1002,586" /><g class="age middle"><text x="1020" y="670">23</text></g></g><g class="age"><polygon class="rectangle" points="1002,586 1037,586 1037,430 1002,430" /><g class="age middle"><text x="1020" y="513">24</text></g></g><g class="age"><polygon class="rectangle" points="1002,430 1037,430 1037,273 1002,273" /><g class="age middle"><text x="1020" y="357">25</text></g></g><g class="age"><polygon class="rectangle" points="1002,273 1037,273 1037,117 1002,117" /><g class="age middle"><text x="1020" y="200">26</text></g></g><g class="axis_label"><text x="328" y="80">weekday</text></g><g class="axis_label"><text x="328" y="96">mornings</text></g><g class="axis_label"><text x="493" y="80">weekday</text></g><g class="axis_label"><text x="493" y="96">afternoons</text></g><g class="axis_label"><text x="673" y="80">weekday</text></g><g class="axis_label"><text x="673" y="96">evenings</text></g><line stroke="grey" x1="300" x2="299" y1="105" y2="50" /><line stroke="grey" x1="450" x2="449" y1="105" y2="70" /><line stroke="grey" x1="630" x2="629" y1="105" y2="70" /><g class="axis_label"><text x="859" y="88">weekends</text></g><line stroke="grey" x1="810" x2="810" y1="105" y2="50" /><line stroke="grey" x1="1001" x2="1001" y1="105" y2="50" /><g class="axis_label"><text x="53" y="88">residences</text></g><g class="axis_label"><text x="233" y="88">flatmates</text></g><line stroke="grey" x1="300" x2="300" y1="105" y2="50" /><g class="axis_label"><text x="1040" y="88">events</text></g><line stroke="grey" x1="1052" x2="1052" y1="100" y2="4341" /><g><text x="1025" y="15">Generated on 2022-05-29</text></g><circle class="event1" cx="1052.5274725274726" cy="4341.0" r="3" /><g class="event"><text x="1058" y="4346">Arrived on Sol III</text></g><polygon class="gray1 residence rectangle" points="50,4341 1002,4341 1002,1867 50,1867" /><g><text x="53" y="4339">Dripping Springs TX</text></g><polygon class="gray2 residence rectangle" points="50,1845 1002,1845 1002,1120 50,1120" /><g><text x="53" y="1844">Mill St, San Marcos TX</text></g><polygon class="gray3 residence rectangle" points="50,1120 1002,1120 1002,1016 50,1016" /><g><text x="53" y="1118">Post Rd, San Marcos TX</text></g><polygon class="gray4 residence rectangle" points="50,1016 1002,1016 1002,489 50,489" /><g><text x="53" y="1014">Lady Bird Lane, San Marcos TX</text></g><polygon class="gray5 residence rectangle" points="50,646 1002,646 1002,455 50,455" /><g><text x="53" y="644">Deaton Hill, Austin TX</text></g><polygon class="gray6 residence rectangle" points="50,455 1002,455 1002,100 50,100" /><g><text x="53" y="454">Corpus Christi TX</text></g><polygon class="school1 rectangle" points="360,3697 600,3697 600,1663 360,1663" /><g class="school1 middle"><text x="480" y="2685">Homeschooled</text></g><polygon class="friend2 rectangle" points="272,4341 285,4341 285,1867 272,1867" /><g class="friend2 vert middle"><text x="279" y="3109">SH</text></g><polygon class="friend2 rectangle" points="260,4341 272,4341 272,1120 260,1120" /><g class="friend2 vert middle"><text x="267" y="2735">JH</text></g><polygon class="friend2 rectangle" points="248,3924 260,3924 260,1120 248,1120" /><g class="friend2 vert middle"><text x="255" y="2527">RAH</text></g><polygon class="friend2 rectangle" points="236,3374 248,3374 248,1120 236,1120" /><g class="friend2 vert middle"><text x="243" y="2252">BRH</text></g><polygon class="friend2 rectangle" points="224,3129 236,3129 236,1120 224,1120" /><g class="friend2 vert middle"><text x="231" y="2129">LJH</text></g><polygon class="friend2 rectangle" points="272,455 285,455 285,100 272,100" /><g class="friend2 vert middle"><text x="279" y="282">Lauren</text></g><polygon class="friend1 rectangle" points="248,1120 260,1120 260,1016 248,1016" /><g class="friend1 middle"><text x="255" y="1073">1</text></g><polygon class="friend1 rectangle" points="260,1120 272,1120 272,1016 260,1016" /><g class="friend1 middle"><text x="267" y="1073">2</text></g><polygon class="friend1 rectangle" points="272,971 285,971 285,646 272,646" /><g class="friend1 vert middle"><text x="279" y="813">Luke L.</text></g><polygon class="friend2 rectangle" points="272,1016 285,1016 285,989 272,989" /><g class="friend2 vert middle"><text x="279" y="1007">Chris</text></g><polygon class="friend2 rectangle" points="272,646 285,646 285,455 272,455" /><g class="friend2 vert middle"><text x="279" y="555">Micah</text></g><polygon class="friend1 rectangle" points="260,455 272,455 272,100 260,100" /><g class="friend1 vert middle"><text x="267" y="282">Oliver 🐱</text></g><polygon class="friend1 rectangle" points="248,455 260,455 260,100 248,100" /><g class="friend1 vert middle"><text x="255" y="282">Clementine 🐱</text></g><polygon class="friend1 rectangle" points="236,359 248,359 248,100 236,100" /><g class="friend1 vert middle"><text x="243" y="234">Bo 🐱</text></g><polygon class="friend1 rectangle" points="224,359 236,359 236,100 224,100" /><g class="friend1 vert middle"><text x="231" y="234">Serena 🐱</text></g><polygon class="friend1 rectangle" points="212,359 224,359 224,100 212,100" /><g class="friend1 vert middle"><text x="219" y="234">Doughboy 🐱</text></g><polygon class="friend1 rectangle" points="200,359 212,359 212,100 200,100" /><g class="friend1 vert middle"><text x="207" y="234">Taro 🐱</text></g><circle class="event2" cx="1052.5274725274726" cy="4027.9462789053823" r="3" /><g class="event"><text x="1058" y="4032">Turned 2 (earliest dated memory)</text></g><circle class="event3" cx="1052.5274725274726" cy="3924.737049378976" r="3" /><g class="event"><text x="1058" y="3929">Car hits deer; sister born</text></g><circle class="event4" cx="1052.5274725274726" cy="1039.5894173482784" r="3" /><g class="event"><text x="1058" y="1044">Met Lauren at Zelik's bar</text></g><circle class="event5" cx="1052.5274725274726" cy="962.931939816217" r="3" /><g class="event"><text x="1058" y="967">Visited Lauren's parents</text></g><circle class="event6" cx="1052.5274725274726" cy="894.8395435726547" r="3" /><g class="event"><text x="1058" y="899">Roadtrip to Kansas City with Lauren</text></g><circle class="event7" cx="1052.5274725274726" cy="725.6791881248105" r="3" /><g class="event"><text x="1058" y="730">Trip to San Francisco with Lauren</text></g><circle class="event8" cx="1052.5274725274726" cy="437.8924568312632" r="3" /><g class="event"><text x="1058" y="442">Honeymoon to Vancouver BC and Whitehorse Yukon</text></g><circle class="event9" cx="1052.5274725274726" cy="894.8395435726547" r="3" /><g class="event"><text x="1058" y="899">2016 Ford Transit Connect XLT</text></g><circle class="event10" cx="1052.5274725274726" cy="1074.7062506311217" r="3" /><g class="event"><text x="1058" y="1079">Trip to Leakey</text></g><circle class="event11" cx="1052.5274725274726" cy="1155.646268807432" r="3" /><g class="event"><text x="1058" y="1160">2013 VW Jetta S</text></g><circle class="event12" cx="1052.5274725274726" cy="1168.9221448046046" r="3" /><g class="event"><text x="1058" y="1173">2007 VW Jetta Wolfsburg</text></g><circle class="event13" cx="1052.5274725274726" cy="1181.7697667373523" r="3" /><g class="event"><text x="1058" y="1186">Driver's license</text></g><circle class="event14" cx="1052.5274725274726" cy="1195.0456427345248" r="3" /><g class="event"><text x="1058" y="1200">Certified Pool Operator</text></g><circle class="event15" cx="1052.5274725274726" cy="1298.6831263253557" r="3" /><g class="event"><text x="1058" y="1303">HVAC EPA Certification Type I, II</text></g><circle class="event16" cx="1052.5274725274726" cy="2915.342219529435" r="3" /><g class="event"><text x="1058" y="2920">First computer</text></g><circle class="event17" cx="1052.5274725274726" cy="1921.7927900636168" r="3" /><g class="event"><text x="1058" y="1926">Built first website (forum)</text></g><circle class="event18" cx="1052.5274725274726" cy="1845.5635665959808" r="3" /><g class="event"><text x="1058" y="1850">Broadband Internet (prev. dialup)</text></g><circle class="event19" cx="1052.5274725274726" cy="1897.3823083913967" r="3" /><g class="event"><text x="1058" y="1902">Met Kolton</text></g><circle class="event20" cx="1052.5274725274726" cy="603.198525699283" r="3" /><g class="event"><text x="1058" y="608">Met Kolton IRL</text></g><circle class="event21" cx="1052.5274725274726" cy="1051.152277087751" r="3" /><g class="event"><text x="1058" y="1056">Wisdom teeth removed</text></g><circle class="event22" cx="1052.5274725274726" cy="816.4690497828938" r="3" /><g class="event"><text x="1058" y="821">ACL 2017</text></g><circle class="event23" cx="1052.5274725274726" cy="908.1154195698273" r="3" /><g class="event"><text x="1058" y="913">SXSW 2017; met Tommy Wiseau</text></g><circle class="event24" cx="1052.5274725274726" cy="751.8026860547307" r="3" /><g class="event"><text x="1058" y="756">SXSW 2018</text></g><circle class="event25" cx="1052.5274725274726" cy="503.84358275270097" r="3" /><g class="event"><text x="1058" y="508">ACL 2019</text></g><circle class="event26" cx="1052.5274725274726" cy="543.2429566797937" r="3" /><g class="event"><text x="1058" y="548">Trip to Ocala FL</text></g><circle class="event27" cx="1052.5274725274726" cy="529.9670806826211" r="3" /><g class="event"><text x="1058" y="534">Trip to Chicago IL</text></g><circle class="event28" cx="1052.5274725274726" cy="490.56770675552843" r="3" /><g class="event"><text x="1058" y="495">2nd trip to Chicago IL</text></g><circle class="event29" cx="1052.5274725274726" cy="3384.7086741391495" r="3" /><g class="event"><text x="1058" y="3389">Trip to FL 2001</text></g><circle class="event30" cx="1052.5274725274726" cy="2759.029486014339" r="3" /><g class="event"><text x="1058" y="2764">Trip to FL 2005</text></g><circle class="event31" cx="1052.5274725274726" cy="573.6489952539632" r="3" /><g class="event"><text x="1058" y="578">Proposed</text></g><a target="_blank" xlink:href="https://lukeloveslauren.com"><circle class="event32" cx="1052.5274725274726" cy="451.1683328284357" r="3" /></a><g class="event"><a target="_blank" xlink:href="https://lukeloveslauren.com"><text x="1058" y="456">❤️ Married Lauren 2020/02/29</text></a></g><polygon class="love2 rectangle" points="853,1269 913,1269 913,1100 853,1100" /><g class="love2 vert middle"><text x="883" y="1190">Rebekah</text></g><polygon class="love1 rectangle" points="895,1016 931,1016 931,1002 895,1002" /><g class="love1 middle"><text x="913" y="1014">Ana</text></g><polygon class="love3 rectangle" points="811,977 955,977 955,100 811,100" /><g class="love3 middle"><text x="883" y="543">Lauren</text></g><polygon class="work1 rectangle" points="420,282 630,282 630,243 420,243" /><g class="work1 middle"><text x="525" y="267">Harbor Playhouse</text></g><polygon class="work1 rectangle" points="895,282 1015,282 1015,243 895,243" /><g class="work1 middle"><text x="955" y="267">Harbor Playhouse</text></g><polygon class="work1 rectangle" points="330,347 420,347 420,100 330,100" /><g class="work1 vert middle"><text x="375" y="228">Coastal Bend Wellness Foundation</text></g><polygon class="work3 rectangle" points="660,359 780,359 780,100 660,100" /><g class="work3 vert middle"><text x="720" y="234">Full-time freelancing</text></g><polygon class="work2 rectangle" points="300,575 570,575 570,373 300,373" /><g class="work2 middle"><text x="435" y="479">Redwood Logistics (formerly Strive)</text></g><polygon class="work1 rectangle" points="300,764 570,764 570,575 300,575" /><g class="work1 middle"><text x="435" y="674">Strive Logistics</text></g><polygon class="work2 rectangle" points="330,894 600,894 600,777 330,777" /><g class="work2 middle"><text x="465" y="840">Kotin Property Management</text></g><polygon class="work1 rectangle" points="300,972 690,972 690,908 300,908" /><g class="work1 middle"><text x="495" y="945">Ella Lofts</text></g><polygon class="work2 rectangle" points="330,1338 600,1338 600,985 330,985" /><g class="work2 middle"><text x="465" y="1166">The Outpost</text></g><polygon class="work1 rectangle" points="330,1416 600,1416 600,1351 330,1351" /><g class="work1 middle"><text x="465" y="1388">Electric Works - HVAC - Nick Doncov</text></g><polygon class="work2 rectangle" points="630,1559 660,1559 660,100 630,100" /><g class="work2 vert middle"><text x="645" y="834">Hill Country Faith Ministries</text></g><polygon class="work1 rectangle" points="600,529 690,529 690,333 600,333" /><g class="work1 vert middle"><text x="645" y="436">Synergy Works Group</text></g><polygon class="work1 rectangle" points="300,1480 750,1480 750,1467 300,1467" /><g class="work1 middle"><text x="525" y="1478">The Outpost</text></g><polygon class="play1 rectangle" points="937,1897 985,1897 985,412 937,412" /><g class="play1 vert middle"><text x="961" y="1160">Kolton</text></g><polygon class="play1 rectangle" points="690,1897 780,1897 780,412 690,412" /><g class="play1 middle"><text x="735" y="1160">Kolton</text></g><polygon class="play1 rectangle" points="811,3072 835,3072 835,2289 811,2289" /><g class="play1 vert middle"><text x="823" y="2685">Church (ACF)</text></g><polygon class="play2 rectangle" points="811,2289 835,2289 835,1820 811,1820" /><g class="play2 vert middle"><text x="823" y="2060">Church (GH)</text></g><polygon class="play1 rectangle" points="811,1820 829,1820 829,1038 811,1038" /><g class="play1 vert middle"><text x="820" y="1434">Church (HCC)</text></g><polygon class="play2 rectangle" points="811,1038 823,1038 823,881 811,881" /><g class="play2 vert middle"><text x="817" y="965">Church (Eikon)</text></g><polygon class="play1 rectangle" points="510,2289 600,2289 600,1977 510,1977" /><g class="play1 vert middle"><text x="555" y="2138">Hangout at Thrift Store</text></g></svg>